<?xml version="1.0" encoding="UTF-8"?>
<svg xmlns="http://www.w3.org/2000/svg" xmlns:xlink="http://www.w3.org/1999/xlink" width="18px" height="18px" viewBox="0 0 18 18" version="1.1">
<g id="surface1">
<path style=" stroke:none;fill-rule:nonzero;fill:rgb(0%,0%,0%);fill-opacity:1;" d="M 8.078125 13.726562 C 6.960938 13.726562 5.867188 13.394531 4.941406 12.773438 C 4.011719 12.152344 3.289062 11.269531 2.859375 10.238281 C 2.433594 9.207031 2.320312 8.070312 2.539062 6.976562 C 2.757812 5.878906 3.292969 4.875 4.085938 4.085938 C 4.875 3.292969 5.878906 2.757812 6.976562 2.539062 C 8.070312 2.320312 9.207031 2.433594 10.238281 2.859375 C 11.269531 3.289062 12.152344 4.011719 12.773438 4.941406 C 13.394531 5.867188 13.726562 6.960938 13.726562 8.078125 C 13.726562 8.820312 13.578125 9.554688 13.296875 10.238281 C 13.011719 10.925781 12.59375 11.546875 12.070312 12.070312 C 11.546875 12.59375 10.925781 13.011719 10.238281 13.296875 C 9.554688 13.578125 8.820312 13.726562 8.078125 13.726562 Z M 8.078125 3.5625 C 7.1875 3.5625 6.316406 3.828125 5.578125 4.320312 C 4.835938 4.816406 4.261719 5.519531 3.921875 6.339844 C 3.578125 7.164062 3.492188 8.066406 3.664062 8.941406 C 3.835938 9.8125 4.265625 10.613281 4.894531 11.246094 C 5.523438 11.875 6.328125 12.300781 7.199219 12.476562 C 8.074219 12.648438 8.976562 12.5625 9.800781 12.21875 C 10.621094 11.878906 11.324219 11.300781 11.820312 10.5625 C 12.3125 9.824219 12.578125 8.953125 12.578125 8.0625 C 12.578125 6.867188 12.101562 5.722656 11.257812 4.878906 C 10.414062 4.035156 9.269531 3.5625 8.078125 3.5625 Z M 8.078125 3.5625 "/>
<path style=" stroke:none;fill-rule:nonzero;fill:rgb(0%,0%,0%);fill-opacity:1;" d="M 15 15.5625 C 14.925781 15.5625 14.851562 15.546875 14.785156 15.519531 C 14.714844 15.492188 14.65625 15.449219 14.601562 15.398438 L 11.503906 12.300781 C 11.40625 12.191406 11.351562 12.050781 11.355469 11.90625 C 11.355469 11.761719 11.414062 11.621094 11.519531 11.519531 C 11.621094 11.414062 11.761719 11.355469 11.90625 11.355469 C 12.050781 11.351562 12.191406 11.40625 12.300781 11.503906 L 15.398438 14.601562 C 15.503906 14.707031 15.5625 14.851562 15.5625 15 C 15.5625 15.148438 15.503906 15.292969 15.398438 15.398438 C 15.34375 15.449219 15.285156 15.492188 15.214844 15.519531 C 15.148438 15.546875 15.074219 15.5625 15 15.5625 Z M 15 15.5625 "/>
</g>
</svg>
